<svg width="183" height="47" viewBox="0 0 183 47" fill="none" xmlns="http://www.w3.org/2000/svg">
<path d="M29.4857 21.3962C29.5071 19.8542 29.9385 18.3424 30.7397 17.0012C31.541 15.6601 32.6862 14.5332 34.0688 13.7253C33.1901 12.5334 32.0311 11.5525 30.6837 10.8604C29.3364 10.1684 27.8378 9.78423 26.3069 9.73845C23.0417 9.41199 19.8745 11.5947 18.2113 11.5947C16.5148 11.5947 13.9535 9.76999 11.193 9.82361C9.40765 9.87879 7.66789 10.3727 6.14342 11.2572C4.61895 12.1417 3.36185 13.3865 2.49478 14.8703C-1.27 21.0508 1.53864 30.1427 5.14241 35.142C6.94513 37.5912 9.05161 40.3258 11.8088 40.2296C14.5062 40.124 15.5138 38.5958 18.769 38.5958C21.9943 38.5958 22.9405 40.2296 25.7524 40.1729C28.6474 40.1287 30.47 37.7126 32.2097 35.2413C33.5051 33.4967 34.5018 31.5683 35.1628 29.5276C33.4808 28.8523 32.0454 27.7212 31.0358 26.2757C30.0262 24.8302 29.4871 23.1342 29.4857 21.3993V21.3962ZM24.1738 6.44867C25.7524 4.64913 26.5301 2.3357 26.3417 0C23.9308 0.241025 21.7037 1.33556 20.1036 3.06584C19.3212 3.91152 18.722 4.8955 18.3403 5.96145C17.9587 7.0274 17.802 8.1544 17.8793 9.27794C19.0853 9.28997 20.2785 9.04172 21.3689 8.5519C22.4592 8.06207 23.4183 7.34346 24.1738 6.45024V6.44867ZM68.5229 39.8732H64.7532L62.6882 33.7226H55.5105L53.5435 39.8732H49.8733L56.9846 18.8981H61.3768L68.5229 39.8732ZM62.0657 31.122L60.1982 25.648C60.0013 25.0887 59.63 23.7707 59.0844 21.6943H59.018C58.686 23.0169 58.3363 24.3348 57.9689 25.648L56.1347 31.1283H62.0657V31.122ZM86.8107 32.1203C86.9394 34.3479 86.1519 36.5357 84.6146 38.222C83.9987 38.8668 83.2447 39.3789 82.4032 39.7238C81.5617 40.0688 80.6522 40.2385 79.7359 40.2218C78.8474 40.29 77.9562 40.126 77.1588 39.7473C76.3615 39.3687 75.6884 38.7899 75.2126 38.0738H75.1462V46.0459H71.6021V29.7279C71.6021 28.1098 71.5584 26.4491 71.471 24.7459H74.5901L74.7876 27.1446H74.854C75.3903 26.3646 76.111 25.7143 76.9586 25.2457C77.8062 24.777 78.7574 24.503 79.7362 24.4454C80.715 24.3878 81.6944 24.5483 82.5965 24.9139C83.4985 25.2796 84.2981 25.8404 84.9316 26.5517C86.2489 28.1323 86.9189 30.1128 86.8173 32.1266L86.8107 32.1203ZM83.2053 32.2433C83.2607 30.9551 82.8941 29.6823 82.1562 28.6003C81.8135 28.1275 81.3518 27.7437 80.8131 27.4837C80.2745 27.2236 79.6759 27.0957 79.072 27.1115C78.2025 27.1112 77.3609 27.4034 76.6966 27.9363C75.9866 28.4866 75.4953 29.2504 75.3038 30.1017C75.2062 30.4359 75.1505 30.78 75.1379 31.1268V33.6501C75.1085 34.6742 75.4894 35.6707 76.2036 36.4383C76.5481 36.8103 76.9751 37.1052 77.4538 37.3018C77.9325 37.4984 78.4511 37.5918 78.9724 37.5754C79.5786 37.5985 80.1813 37.4767 80.7251 37.221C81.2689 36.9652 81.7364 36.5839 82.0848 36.1119C82.8792 34.9698 83.2699 33.617 83.2003 32.2496L83.2053 32.2433ZM105.133 32.1266C105.262 34.3545 104.474 36.5426 102.936 38.2283C102.319 38.8726 101.564 39.3839 100.722 39.7278C99.8799 40.0717 98.97 40.2401 98.0536 40.2218C97.1653 40.2903 96.2742 40.1263 95.477 39.7476C94.6799 39.3689 94.0071 38.7901 93.5318 38.0738H93.4655V46.0459H89.9248V29.7279C89.9248 28.1098 89.8811 26.4491 89.7936 24.7459H92.906L93.1036 27.1446H93.17C93.7065 26.3645 94.4273 25.7143 95.2751 25.2457C96.1228 24.777 97.0741 24.503 98.053 24.4454C99.0319 24.3878 100.012 24.5483 100.914 24.9139C101.816 25.2796 102.616 25.8404 103.249 26.5517C104.564 28.1334 105.233 30.1133 105.133 32.1266ZM101.528 32.2496C101.583 30.9612 101.216 29.6884 100.477 28.6066C100.136 28.133 99.6755 27.7481 99.1376 27.487C98.5998 27.2259 98.0017 27.0968 97.3979 27.1115C96.5279 27.1113 95.6859 27.4034 95.0208 27.9363C94.3113 28.4866 93.8205 29.2505 93.6298 30.1017C93.533 30.4361 93.4772 30.7801 93.4638 31.1268V33.6501C93.4348 34.6736 93.8143 35.6696 94.5262 36.4383C94.8714 36.8104 95.2989 37.1053 95.7782 37.3019C96.2574 37.4984 96.7766 37.5919 97.2983 37.5754C97.9046 37.5985 98.5073 37.4767 99.0511 37.221C99.5949 36.9652 100.062 36.5839 100.411 36.1119C101.205 34.9698 101.596 33.617 101.526 32.2496H101.528ZM125.617 33.9939C125.646 34.8126 125.485 35.6274 125.146 36.3806C124.807 37.1339 124.298 37.8072 123.655 38.3529C121.962 39.6605 119.814 40.3157 117.636 40.1886C115.636 40.2788 113.65 39.8253 111.911 38.8812L112.731 36.0788C114.272 36.9687 116.044 37.4329 117.847 37.4193C118.958 37.4826 120.059 37.1795 120.963 36.5614C121.324 36.2885 121.613 35.9389 121.806 35.5406C121.999 35.1424 122.091 34.7065 122.075 34.2683C122.084 33.8692 122.008 33.4724 121.85 33.1025C121.692 32.7325 121.456 32.3972 121.157 32.1172C120.27 31.3823 119.232 30.8298 118.109 30.4943C114.236 29.1275 112.303 27.1215 112.309 24.4762C112.288 23.6692 112.46 22.868 112.812 22.1333C113.164 21.3987 113.688 20.7497 114.343 20.2355C115.873 19.0758 117.796 18.4879 119.751 18.5827C121.482 18.5253 123.202 18.8673 124.764 19.5794L123.879 22.3204C122.579 21.6638 121.124 21.3317 119.651 21.3552C118.6 21.2951 117.562 21.6057 116.736 22.2273C116.455 22.4641 116.23 22.7556 116.077 23.0821C115.925 23.4086 115.848 23.7625 115.852 24.1198C115.844 24.5125 115.932 24.9016 116.108 25.257C116.284 25.6125 116.543 25.9248 116.866 26.17C117.837 26.8734 118.919 27.4249 120.073 27.8039C121.66 28.3355 123.095 29.2089 124.268 30.3556C125.177 31.3669 125.655 32.6646 125.609 33.9939H125.617ZM137.318 27.2692H133.417V34.6168C133.417 36.4851 134.106 37.4193 135.482 37.4193C136.011 37.4297 136.539 37.3767 137.054 37.2616L137.152 39.8149C136.265 40.0902 135.333 40.2162 134.4 40.1871C133.794 40.219 133.188 40.1272 132.622 39.9177C132.057 39.7082 131.545 39.386 131.122 38.9727C130.217 37.7954 129.797 36.3441 129.941 34.8928V27.2661H127.617V24.7428H129.941V21.9718L133.417 20.9751V24.7428H137.318V27.2661V27.2692ZM154.914 32.1881C155 34.2811 154.251 36.3277 152.816 37.9176C152.078 38.6825 151.174 39.2851 150.166 39.6831C149.157 40.0811 148.07 40.2649 146.979 40.2218C145.935 40.2658 144.893 40.0908 143.927 39.7092C142.962 39.3276 142.097 38.7488 141.393 38.0138C139.98 36.4746 139.236 34.482 139.312 32.4405C139.222 30.3299 139.99 28.2675 141.458 26.681C142.193 25.9306 143.091 25.3413 144.09 24.9541C145.088 24.5668 146.164 24.3908 147.241 24.4384C148.294 24.396 149.344 24.5715 150.319 24.9527C151.293 25.3339 152.169 25.9118 152.885 26.6463C154.281 28.18 155.008 30.1623 154.917 32.1881H154.914ZM151.242 32.2969C151.281 31.0396 150.952 29.7966 150.292 28.7059C149.995 28.1517 149.539 27.6881 148.977 27.368C148.415 27.0479 147.77 26.8841 147.115 26.8955C146.45 26.8778 145.793 27.0382 145.219 27.3584C144.645 27.6785 144.178 28.1455 143.87 28.7059C143.205 29.8176 142.877 31.0822 142.921 32.36C142.882 33.6169 143.21 34.8595 143.87 35.9495C144.181 36.4994 144.644 36.9585 145.208 37.2774C145.773 37.5964 146.418 37.7633 147.075 37.76C147.732 37.7568 148.376 37.5836 148.937 37.259C149.499 36.9345 149.956 36.4709 150.261 35.9179C150.936 34.8232 151.277 33.5716 151.245 32.3033L151.242 32.2969ZM166.417 27.7029C166.049 27.6397 165.676 27.6086 165.302 27.6099C164.741 27.5853 164.183 27.6952 163.679 27.9294C163.175 28.1637 162.741 28.5148 162.417 28.9504C161.797 29.8357 161.487 30.8844 161.532 31.9468V39.8732H157.998L158.031 29.5055C158.031 27.7613 157.987 26.1732 157.898 24.7412H160.981L161.11 27.6367H161.208C161.543 26.6925 162.157 25.8601 162.978 25.2395C163.716 24.7145 164.614 24.4302 165.536 24.4289C165.832 24.4275 166.128 24.448 166.421 24.4904V27.6966L166.417 27.7029ZM182.245 31.5967C182.254 32.1079 182.211 32.6186 182.115 33.1218H171.492C171.468 33.7654 171.594 34.406 171.86 34.9982C172.127 35.5905 172.527 36.1198 173.032 36.5487C174.02 37.2837 175.251 37.6591 176.505 37.607C177.971 37.6253 179.428 37.3824 180.801 36.891L181.355 39.225C179.662 39.8829 177.844 40.2013 176.015 40.1602C174.947 40.2161 173.878 40.061 172.877 39.7046C171.875 39.3482 170.962 38.7982 170.195 38.0895C169.473 37.3427 168.914 36.4666 168.551 35.5125C168.188 34.5583 168.029 33.5452 168.082 32.5319C168.005 30.4706 168.702 28.4505 170.051 26.834C170.714 26.0426 171.563 25.4105 172.531 24.9889C173.498 24.5672 174.556 24.3678 175.62 24.4068C176.635 24.3533 177.648 24.5484 178.561 24.9734C179.474 25.3984 180.256 26.0391 180.834 26.834C181.811 28.2449 182.305 29.9085 182.248 31.5967H182.245ZM178.87 30.7246C178.916 29.8173 178.677 28.9174 178.183 28.1398C177.891 27.6848 177.474 27.3139 176.977 27.0669C176.48 26.8199 175.921 26.7061 175.361 26.7378C174.808 26.7278 174.262 26.8477 173.769 27.0868C173.277 27.3259 172.854 27.6767 172.539 28.1082C171.936 28.8678 171.573 29.7747 171.492 30.723H178.864L178.87 30.7246ZM60.8954 5.98027C60.9546 6.75961 60.8273 7.54155 60.5232 8.26751C60.219 8.99347 59.7459 9.64462 59.1392 10.1721C57.8102 11.1121 56.1729 11.5727 54.5195 11.4717C53.6695 11.4787 52.8197 11.4376 51.9748 11.3486V1.20646C52.9659 1.05905 53.9679 0.987327 54.971 0.991981C56.5061 0.885446 58.0307 1.30323 59.2703 2.17006C59.8236 2.64945 60.2568 3.24056 60.538 3.89993C60.8193 4.5593 60.9414 5.27017 60.8954 5.98027ZM59.0695 6.02601C59.1048 5.52398 59.034 5.02031 58.8613 4.54468C58.6885 4.06906 58.4173 3.63111 58.0635 3.25666C57.6671 2.91614 57.2024 2.65525 56.6972 2.48967C56.192 2.32408 55.6568 2.25721 55.1237 2.29307C54.6542 2.28628 54.1851 2.32219 53.7227 2.40031V10.1106C54.1131 10.1497 54.5056 10.165 54.898 10.1564C55.4605 10.1904 56.0243 10.1144 56.5546 9.93289C57.0848 9.7514 57.5702 9.46835 57.9805 9.10131C58.3664 8.68217 58.6612 8.1947 58.8481 7.66693C59.035 7.13916 59.1102 6.5815 59.0695 6.02601ZM70.6294 7.60309C70.672 8.6314 70.3037 9.63698 69.5986 10.4182C69.2365 10.794 68.7923 11.0902 68.2971 11.2858C67.8019 11.4814 67.2677 11.5717 66.7318 11.5505C66.2183 11.5722 65.706 11.4861 65.2314 11.2983C64.7569 11.1105 64.3317 10.8256 63.9863 10.4639C63.293 9.70724 62.9281 8.72865 62.9654 7.7261C62.9212 6.68938 63.2986 5.67627 64.0195 4.89682C64.3804 4.52785 64.8216 4.23797 65.3123 4.04733C65.8031 3.85668 66.3317 3.76985 66.8613 3.79287C67.3782 3.77274 67.8935 3.85932 68.3718 4.04663C68.8501 4.23395 69.28 4.51755 69.6318 4.8779C70.315 5.63246 70.671 6.60543 70.6277 7.59993L70.6294 7.60309ZM68.825 7.65671C68.8432 7.03891 68.6818 6.4283 68.3586 5.89196C68.2122 5.61977 67.9884 5.39209 67.7125 5.23484C67.4367 5.07759 67.1199 4.99708 66.7982 5.00249C66.4713 4.99379 66.1484 5.07257 65.8663 5.22984C65.5843 5.38711 65.3544 5.61654 65.203 5.89196C64.8765 6.43794 64.715 7.05903 64.7366 7.68667C64.7184 8.30447 64.8798 8.91508 65.203 9.45142C65.3542 9.72357 65.5817 9.95068 65.8603 10.1077C66.1389 10.2646 66.4578 10.3454 66.7816 10.3409C67.1046 10.3428 67.4217 10.2591 67.6974 10.0992C67.973 9.93927 68.1963 9.70948 68.342 9.43565C68.6748 8.89719 68.8421 8.28092 68.825 7.65671ZM83.67 3.94742L81.2133 11.3802H79.6197L78.6055 8.15191C78.3527 7.36202 78.1428 6.56034 77.9764 5.75002H77.9448C77.7948 6.56369 77.5846 7.36631 77.3157 8.15191L76.2384 11.3802H74.6266L72.3242 3.94585H74.112L74.9968 7.48007C75.2114 8.31592 75.3885 9.1113 75.5279 9.86619H75.5595C75.689 9.24482 75.9042 8.45628 76.2052 7.50058L77.3157 3.95215H78.74L79.804 7.42172C80.0607 8.26914 80.2699 9.08501 80.4315 9.86934H80.4796C80.6106 9.04506 80.7879 8.22802 81.0108 7.42172L81.9603 3.95215H83.6684L83.67 3.94742ZM92.6836 11.3802H90.9407V7.12208C90.9407 5.80995 90.415 5.15389 89.3637 5.15389C89.1247 5.14722 88.8873 5.19249 88.6695 5.28623C88.4518 5.37998 88.2594 5.51973 88.1071 5.69482C87.7885 6.0497 87.6167 6.50269 87.6241 6.9691V11.3849H85.8778V6.07017C85.8778 5.41726 85.8568 4.7081 85.8147 3.94269H87.3435L87.4249 5.105H87.473C87.685 4.73566 87.9959 4.4261 88.3744 4.20764C88.8478 3.92928 89.3946 3.78435 89.9513 3.78971C90.2878 3.77885 90.6231 3.83293 90.9369 3.94867C91.2508 4.06442 91.5366 4.23943 91.7773 4.46313C92.0981 4.79271 92.3442 5.18149 92.5001 5.60528C92.656 6.02907 92.7185 6.47881 92.6836 6.92652V11.3802ZM97.4809 11.3802H95.7396V0.534629H97.4776L97.4809 11.3802ZM107.723 7.5952C107.765 8.62352 107.397 9.62909 106.692 10.4103C106.33 10.786 105.886 11.082 105.39 11.2776C104.895 11.4732 104.361 11.5636 103.825 11.5426C103.312 11.5651 102.799 11.4793 102.324 11.2915C101.85 11.1036 101.425 10.8183 101.08 10.456C100.386 9.69936 100.021 8.72077 100.059 7.71821C100.015 6.6815 100.392 5.66839 101.113 4.88894C101.474 4.52017 101.915 4.23041 102.405 4.03978C102.895 3.84914 103.424 3.7622 103.953 3.78498C104.47 3.76483 104.986 3.85139 105.464 4.0387C105.943 4.22601 106.373 4.50962 106.725 4.87001C107.408 5.62457 107.764 6.59755 107.721 7.59205L107.723 7.5952ZM105.917 7.64882C105.935 7.03102 105.774 6.42041 105.45 5.88407C105.304 5.61189 105.081 5.38417 104.805 5.22689C104.53 5.06962 104.213 4.98912 103.892 4.9946C103.565 4.98553 103.242 5.06415 102.959 5.22147C102.677 5.37878 102.448 5.60842 102.296 5.88407C101.97 6.43006 101.808 7.05114 101.83 7.67878C101.812 8.29658 101.973 8.90719 102.296 9.44353C102.448 9.71568 102.675 9.9428 102.954 10.0998C103.232 10.2568 103.551 10.3375 103.875 10.333C104.198 10.335 104.515 10.2513 104.79 10.0914C105.066 9.93142 105.288 9.70159 105.434 9.42776C105.767 8.8896 105.935 8.27312 105.917 7.64882ZM116.142 11.3739H114.58L114.451 10.5175H114.402C114.14 10.8539 113.794 11.1234 113.395 11.3023C112.996 11.4811 112.557 11.5636 112.117 11.5426C111.786 11.5557 111.456 11.5026 111.148 11.3866C110.84 11.2705 110.562 11.0943 110.331 10.8692C110.129 10.6677 109.97 10.4301 109.865 10.1703C109.76 9.91049 109.71 9.63348 109.718 9.35522C109.701 8.93777 109.804 8.52383 110.015 8.1575C110.227 7.79118 110.539 7.48619 110.918 7.27505C111.951 6.74293 113.121 6.49908 114.293 6.57168V6.4392C114.293 5.45931 113.751 4.96989 112.668 4.97094C111.945 4.95788 111.235 5.14949 110.628 5.52134L110.279 4.43632C111.093 3.98752 112.023 3.7651 112.963 3.79445C115.008 3.79445 116.032 4.81955 116.034 6.86974V9.60755C116.024 10.2003 116.062 10.7929 116.147 11.3802L116.142 11.3739ZM114.336 8.81901V7.67878C112.417 7.64724 111.458 8.14665 111.458 9.17701C111.444 9.33647 111.467 9.49682 111.524 9.64726C111.581 9.7977 111.672 9.93473 111.79 10.0491C112.023 10.2459 112.328 10.3498 112.64 10.3393C113.024 10.3385 113.398 10.2177 113.704 9.99551C113.901 9.86391 114.062 9.68855 114.172 9.48464C114.282 9.28072 114.337 9.05441 114.334 8.82532L114.336 8.81901ZM126.027 11.3739H124.483L124.402 10.18H124.354C124.124 10.6181 123.763 10.9814 123.315 11.224C122.868 11.4666 122.355 11.5775 121.841 11.5426C121.39 11.5494 120.944 11.4578 120.536 11.2749C120.129 11.0919 119.771 10.8226 119.49 10.4876C118.842 9.71159 118.511 8.73935 118.557 7.74975C118.508 6.692 118.87 5.65401 119.575 4.83374C119.872 4.50229 120.243 4.23717 120.66 4.05727C121.078 3.87736 121.532 3.78709 121.99 3.79287C122.42 3.75204 122.853 3.82467 123.242 4.00276C123.631 4.18085 123.961 4.45749 124.195 4.8022H124.228V0.534629H125.969V9.3773C125.969 10.1017 125.99 10.7693 126.031 11.3802L126.027 11.3739ZM124.223 8.24496V7.00537C124.239 6.71947 124.187 6.4338 124.069 6.17009C123.952 5.90637 123.773 5.67156 123.546 5.48349C123.225 5.21525 122.811 5.07067 122.384 5.07819C122.084 5.06872 121.787 5.13109 121.519 5.25953C121.252 5.38797 121.023 5.57835 120.853 5.8131C120.46 6.36971 120.263 7.03095 120.292 7.70086C120.261 8.3368 120.449 8.965 120.827 9.49085C120.996 9.72352 121.224 9.91242 121.489 10.0405C121.755 10.1685 122.049 10.2316 122.347 10.2242C122.611 10.2321 122.873 10.1808 123.111 10.0745C123.35 9.96815 123.559 9.8098 123.722 9.61228C124.056 9.23137 124.234 8.74742 124.219 8.25126L124.223 8.24496ZM140.904 7.60151C140.946 8.62982 140.578 9.6354 139.873 10.4166C139.511 10.7928 139.066 11.0891 138.571 11.2847C138.075 11.4803 137.541 11.5705 137.004 11.5489C136.491 11.5703 135.979 11.4841 135.504 11.2963C135.03 11.1085 134.605 10.8238 134.259 10.4623C133.566 9.70567 133.201 8.72707 133.238 7.72452C133.194 6.6878 133.571 5.6747 134.292 4.89525C134.653 4.52606 135.095 4.23606 135.586 4.04541C136.077 3.85476 136.606 3.76805 137.136 3.79129C137.652 3.77118 138.167 3.85777 138.645 4.04509C139.123 4.23242 139.553 4.51601 139.904 4.87632C140.588 5.63088 140.944 6.60386 140.9 7.59835L140.904 7.60151ZM139.101 7.65513C139.119 7.03733 138.958 6.42672 138.635 5.89038C138.488 5.61807 138.264 5.39033 137.988 5.23308C137.712 5.07584 137.394 4.99539 137.073 5.00091C136.746 4.99258 136.423 5.07152 136.141 5.22875C135.859 5.38598 135.629 5.61521 135.477 5.89038C135.151 6.43652 134.991 7.0576 135.013 7.68509C134.994 8.30289 135.156 8.9135 135.479 9.44984C135.632 9.71999 135.859 9.9455 136.137 10.1022C136.414 10.2588 136.731 10.3408 137.054 10.3391C137.377 10.3375 137.693 10.2524 137.969 10.093C138.245 9.93352 138.47 9.70574 138.62 9.43407C138.952 8.89532 139.119 8.27925 139.103 7.65513H139.101ZM150.258 11.3802H148.518V7.12208C148.518 5.80995 147.992 5.15389 146.939 5.15389C146.701 5.14699 146.463 5.19216 146.246 5.28593C146.028 5.3797 145.836 5.51958 145.684 5.69482C145.365 6.04933 145.193 6.50256 145.201 6.9691V11.3849H143.46V6.07017C143.46 5.41726 143.44 4.7081 143.399 3.94269H144.926L145.007 5.105H145.055C145.268 4.73636 145.579 4.42702 145.957 4.20764C146.431 3.92931 146.978 3.78439 147.535 3.78971C147.872 3.77885 148.207 3.83293 148.521 3.94867C148.835 4.06442 149.121 4.23943 149.361 4.46313C149.682 4.79289 149.927 5.18181 150.082 5.60564C150.237 6.02947 150.298 6.47911 150.263 6.92652V11.3802H150.258ZM161.964 5.17754H160.048V8.78905C160.048 9.7069 160.388 10.1658 161.062 10.1658C161.323 10.1715 161.584 10.1456 161.837 10.0886L161.882 11.3502C161.447 11.4865 160.989 11.549 160.531 11.5347C160.234 11.5506 159.936 11.5056 159.659 11.4027C159.381 11.2999 159.13 11.1416 158.923 10.9386C158.476 10.361 158.269 9.64742 158.342 8.93414V5.17754H157.198V3.94585H158.342V2.58325L160.046 2.09436V3.94427H161.962V5.17754H161.964ZM171.173 11.3739H169.432V7.15362C169.432 5.82046 168.907 5.15389 167.856 5.15389C167.483 5.14125 167.116 5.24883 166.814 5.45921C166.513 5.66959 166.295 5.97044 166.197 6.31304C166.139 6.50644 166.112 6.70671 166.115 6.90759V11.3786H164.377V0.534629H166.115V5.01983H166.148C166.389 4.63463 166.734 4.31794 167.147 4.10291C167.561 3.88789 168.028 3.78244 168.499 3.7976C168.83 3.78788 169.159 3.84262 169.467 3.95843C169.775 4.07424 170.054 4.24869 170.288 4.47101C170.603 4.80949 170.844 5.20448 170.996 5.6327C171.148 6.06092 171.208 6.5137 171.173 6.96437V11.3802V11.3739ZM180.673 7.30502C180.676 7.5561 180.655 7.80692 180.608 8.05413H175.391C175.38 8.36997 175.442 8.68425 175.573 8.97493C175.703 9.26562 175.899 9.52567 176.146 9.73687C176.632 10.098 177.238 10.2826 177.854 10.2573C178.574 10.2674 179.29 10.1491 179.964 9.90877L180.236 11.0569C179.404 11.3795 178.51 11.5357 177.61 11.5158C177.086 11.5434 176.561 11.4672 176.07 11.2921C175.578 11.117 175.13 10.8468 174.754 10.4986C174.398 10.132 174.123 9.7017 173.945 9.23295C173.767 8.7642 173.689 8.26639 173.716 7.76868C173.679 6.75677 174.023 5.76543 174.686 4.97252C175.01 4.58311 175.428 4.27214 175.903 4.06495C176.378 3.85776 176.899 3.76021 177.421 3.78025C177.919 3.75395 178.416 3.8498 178.864 4.05859C179.312 4.26738 179.696 4.5821 179.979 4.97252C180.463 5.66368 180.707 6.48164 180.676 7.31133L180.673 7.30502ZM179.013 6.87763C179.037 6.43505 178.921 5.99573 178.681 5.61597C178.538 5.39268 178.333 5.21061 178.089 5.08922C177.845 4.96782 177.571 4.91168 177.297 4.92679C177.026 4.92308 176.758 4.98253 176.516 5.09992C176.275 5.21731 176.068 5.38907 175.912 5.6002C175.617 5.97437 175.438 6.41965 175.396 6.88552L179.013 6.87763Z" fill="#B8B8B8"/>
</svg>
 