<svg xmlns="http://www.w3.org/2000/svg" viewBox="0 0 488.79 388.32"><defs><style>.cls-1{fill:#8DB9C3;opacity:0.5;}</style></defs><title>Asset 1</title><g id="Layer_2" data-name="Layer 2"><g id="Saxophone"><path class="cls-1" d="M335.71,322.39l-.1,0a116.74,116.74,0,0,1-45.16,4.05,57.69,57.69,0,0,1-79,53.89,97.11,97.11,0,0,1-135.53-88.5A69.7,69.7,0,0,1,50.26,155.5c.41-.12.83-.21,1.24-.32A98.27,98.27,0,0,1,204.93,72.62a105.71,105.71,0,0,1,200.16-1.8,92,92,0,0,1,21.36,178.66,61.7,61.7,0,1,1-90.74,72.91Z"/></g></g></svg>