<svg width="170" height="38" viewBox="0 0 170 38" fill="none" xmlns="http://www.w3.org/2000/svg">
<path d="M54.9049 4.79351C54.9297 5.30013 54.8459 5.80625 54.6586 6.28102C54.4713 6.75579 54.1843 7.18926 53.8153 7.555C53.3951 7.96262 52.8902 8.28228 52.3329 8.49353C51.7756 8.70479 51.1781 8.80299 50.5786 8.78186C49.9799 8.79182 49.3852 8.68726 48.8298 8.47437C48.2743 8.26147 47.7694 7.94458 47.3449 7.54246C46.911 7.14361 46.5685 6.66349 46.3392 6.13236C46.1099 5.60123 45.9986 5.03062 46.0125 4.45651C45.9981 3.88369 46.109 3.31429 46.3381 2.78447C46.5672 2.25464 46.9096 1.77599 47.3434 1.37891C47.7661 0.973142 48.2706 0.652943 48.8266 0.437561C49.3825 0.222178 49.9785 0.116062 50.5786 0.125589C51.1988 0.126451 51.8125 0.245782 52.3834 0.476519C52.9125 0.674777 53.384 0.990906 53.7583 1.39841L52.9919 2.12672C52.6934 1.80092 52.321 1.5439 51.903 1.37504C51.485 1.20618 51.0321 1.12989 50.5786 1.15192C49.6814 1.14136 48.8166 1.47045 48.1742 2.06684C47.8395 2.37477 47.5768 2.74631 47.4029 3.15731C47.229 3.5683 47.148 4.00954 47.165 4.45233C47.1479 4.89616 47.229 5.33845 47.4028 5.75057C47.5766 6.1627 47.8394 6.53548 48.1742 6.84478C48.8158 7.44173 49.6786 7.77394 50.5757 7.76945C51.0293 7.78101 51.4807 7.70532 51.9029 7.54692C52.3251 7.38851 52.7094 7.15065 53.0328 6.84757C53.4803 6.39276 53.74 5.79926 53.7641 5.17647H50.5757V4.16685H54.8347C54.8812 4.37274 54.9033 4.58294 54.9005 4.79351H54.9049ZM61.662 1.33574H57.6604V3.95797H61.2671V4.95505H57.6604V7.57588H61.6605V8.59247H56.5269V0.319158H61.6605L61.662 1.33574ZM66.43 8.59107H65.2965V1.33574H62.8423V0.32055H68.8842V1.33713H66.43V8.59247V8.59107ZM73.2573 8.59107V0.321943H74.3879V8.59386L73.2573 8.59107ZM79.4001 8.59107H78.2768V1.33574H75.8139V0.32055H81.8631V1.33713H79.4001V8.59107ZM93.2945 7.52854C92.4332 8.33195 91.2754 8.78193 90.0696 8.78193C88.8638 8.78193 87.706 8.33195 86.8446 7.52854C86.4214 7.12668 86.0884 6.64719 85.8656 6.11912C85.6429 5.59106 85.5351 5.02542 85.5488 4.45651C85.5356 3.88742 85.644 3.32171 85.8672 2.79366C86.0905 2.2656 86.424 1.7862 86.8475 1.38448C87.7064 0.579178 88.8634 0.127797 90.0688 0.127797C91.2742 0.127797 92.4313 0.579178 93.2902 1.38448C93.7143 1.78428 94.0485 2.26207 94.2725 2.78876C94.4966 3.31545 94.6057 3.88003 94.5933 4.44815C94.6068 5.01705 94.499 5.58264 94.2762 6.11068C94.0535 6.63872 93.7205 7.11823 93.2975 7.52018L93.2945 7.52854ZM87.6812 6.83225C88.3186 7.42769 89.1759 7.76126 90.0688 7.76126C90.9618 7.76126 91.8191 7.42769 92.4565 6.83225C92.7813 6.52019 93.0357 6.14827 93.2042 5.73927C93.3727 5.33027 93.4518 4.89282 93.4364 4.45372C93.4518 4.01463 93.3727 3.57717 93.2042 3.16818C93.0357 2.75918 92.7813 2.38725 92.4565 2.0752C91.8191 1.47976 90.9618 1.14619 90.0688 1.14619C89.1759 1.14619 88.3186 1.47976 87.6812 2.0752C87.3564 2.38725 87.1019 2.75918 86.9334 3.16818C86.7649 3.57717 86.6859 4.01463 86.7013 4.45372C86.6859 4.89282 86.7649 5.33027 86.9334 5.73927C87.1019 6.14827 87.3564 6.52019 87.6812 6.83225ZM96.1787 8.58829V0.321943H97.5536L101.827 6.75566H101.877L101.835 5.16533V0.319158H102.965V8.59107H101.785L97.3093 1.84125H97.261L97.3093 3.43714V8.58968H96.1861L96.1787 8.58829Z" fill="#B8B8B8"/>
<path d="M85.2767 20.6707C84.0622 20.6896 82.8807 21.0498 81.8805 21.706C80.8803 22.3622 80.1061 23.2852 79.655 24.3591C79.204 25.4329 79.0963 26.6097 79.3453 27.7416C79.5944 28.8735 80.1892 29.9102 81.0551 30.7213C81.9209 31.5324 83.0191 32.0818 84.2119 32.3006C85.4046 32.5193 86.6386 32.3976 87.7589 31.9508C88.8793 31.504 89.8359 30.7519 90.5088 29.789C91.1817 28.8262 91.5408 27.6955 91.5409 26.539C91.5482 25.7583 91.3905 24.9841 91.077 24.2627C90.7635 23.5412 90.3007 22.8872 89.7162 22.3397C89.1317 21.7921 88.4374 21.3621 87.6747 21.0754C86.912 20.7887 86.0965 20.651 85.2767 20.6707ZM85.2767 30.0956C84.7992 30.0869 84.3283 29.9874 83.8918 29.8029C83.4553 29.6184 83.0619 29.3526 82.7349 29.0213C82.4078 28.6899 82.1536 28.2995 81.9873 27.8733C81.8211 27.447 81.746 26.9933 81.7665 26.539C81.7389 26.0827 81.8094 25.6259 81.9738 25.1965C82.1381 24.7671 82.3928 24.3743 82.7223 24.0419C83.0518 23.7096 83.4491 23.4448 83.8898 23.2639C84.3306 23.0829 84.8055 22.9896 85.2855 22.9896C85.7655 22.9896 86.2404 23.0829 86.6812 23.2639C87.1219 23.4448 87.5192 23.7096 87.8487 24.0419C88.1782 24.3743 88.4329 24.7671 88.5972 25.1965C88.7616 25.6259 88.8321 26.0827 88.8045 26.539C88.8242 26.9945 88.748 27.4492 88.5804 27.8762C88.4127 28.3033 88.1569 28.694 87.8282 29.0255C87.4994 29.357 87.1043 29.6224 86.6661 29.8062C86.2279 29.99 85.7555 30.0884 85.2767 30.0956ZM71.6265 20.6707C70.4117 20.6882 69.2294 21.0473 68.2283 21.7027C67.2271 22.3581 66.4517 23.2806 65.9996 24.3543C65.5474 25.4281 65.4386 26.6051 65.6869 27.7375C65.9352 28.8699 66.5294 29.9072 67.395 30.719C68.2606 31.5308 69.3588 32.0809 70.5517 32.3002C71.7447 32.5195 72.9791 32.3982 74.0998 31.9515C75.2206 31.5049 76.1777 30.7528 76.8509 29.7898C77.524 28.8268 77.8833 27.6958 77.8834 26.539C77.8913 25.7587 77.7342 24.9849 77.4214 24.2636C77.1085 23.5424 76.6464 22.8885 76.0626 22.3409C75.4787 21.7933 74.785 21.3632 74.0229 21.0763C73.2608 20.7893 72.4458 20.6514 71.6265 20.6707ZM71.6265 30.0956C71.1482 30.0878 70.6763 29.989 70.2387 29.805C69.8011 29.6209 69.4066 29.3554 69.0784 29.0239C68.7502 28.6925 68.495 28.3019 68.3278 27.8752C68.1605 27.4484 68.0847 26.9941 68.1046 26.539C68.0753 26.0818 68.1445 25.6238 68.308 25.1931C68.4715 24.7624 68.7259 24.3681 69.0555 24.0345C69.385 23.7009 69.7828 23.435 70.2244 23.2533C70.6659 23.0716 71.1418 22.9779 71.6229 22.9779C72.1039 22.9779 72.5798 23.0716 73.0213 23.2533C73.4629 23.435 73.8607 23.7009 74.1903 24.0345C74.5198 24.3681 74.7742 24.7624 74.9377 25.1931C75.1013 25.6238 75.1705 26.0818 75.1411 26.539C75.1619 26.9937 75.0868 27.4478 74.9203 27.8744C74.7538 28.3011 74.4993 28.6917 74.1717 29.0231C73.8441 29.3546 73.4502 29.6203 73.013 29.8045C72.5759 29.9887 72.1045 30.0877 71.6265 30.0956ZM55.3817 22.4685V24.9626H61.7103C61.6189 26.1321 61.1112 27.2369 60.2711 28.0945C59.6322 28.7025 58.8678 29.1778 58.0263 29.4903C57.1847 29.8029 56.2843 29.9459 55.3817 29.9104C53.5369 29.9104 51.7676 29.2126 50.4631 27.9705C49.1586 26.7285 48.4257 25.0439 48.4257 23.2873C48.4257 21.5308 49.1586 19.8462 50.4631 18.6041C51.7676 17.362 53.5369 16.6642 55.3817 16.6642C57.1546 16.638 58.8672 17.2767 60.1497 18.4425L62.0174 16.6851C61.1396 15.8713 60.1014 15.2308 58.9626 14.8006C57.8237 14.3704 56.6067 14.159 55.3817 14.1785C52.814 14.1623 50.3428 15.1096 48.5033 16.8155C46.6638 18.5214 45.6039 20.8484 45.5532 23.2929C45.6039 25.7373 46.6638 28.0644 48.5033 29.7703C50.3428 31.4761 52.814 32.4235 55.3817 32.4073C56.634 32.4577 57.8834 32.2558 59.0481 31.8147C60.2127 31.3736 61.2664 30.7033 62.1403 29.8477C63.6799 28.2708 64.5036 26.1788 64.4321 24.0268C64.4355 23.5046 64.3865 22.9832 64.2859 22.4699L55.3817 22.4685ZM121.803 24.4028C121.423 23.3343 120.706 22.403 119.751 21.7354C118.796 21.0678 117.648 20.6961 116.463 20.6707C115.667 20.6712 114.879 20.8253 114.148 21.1239C113.416 21.4225 112.756 21.8593 112.206 22.4078C111.657 22.9564 111.23 23.6053 110.952 24.3154C110.673 25.0254 110.549 25.7819 110.587 26.539C110.573 27.3147 110.724 28.085 111.031 28.8039C111.337 29.5229 111.792 30.1756 112.369 30.7232C112.947 31.2709 113.634 31.7021 114.39 31.9912C115.146 32.2803 115.956 32.4213 116.77 32.4059C117.795 32.4152 118.806 32.1825 119.713 31.7285C120.621 31.2745 121.395 30.6135 121.968 29.8046L119.843 28.4719C119.521 28.9713 119.069 29.3832 118.531 29.6676C117.993 29.9521 117.387 30.0995 116.772 30.0956C116.141 30.1184 115.517 29.9613 114.98 29.6445C114.443 29.3277 114.018 28.8656 113.759 28.3173L122.096 25.0698L121.803 24.4014V24.4028ZM113.3 26.3524C113.273 25.9232 113.337 25.4933 113.488 25.0879C113.638 24.6825 113.871 24.3096 114.174 23.9911C114.478 23.6726 114.845 23.4148 115.254 23.2327C115.663 23.0507 116.106 22.948 116.557 22.9308C117.029 22.9002 117.5 23.0018 117.912 23.223C118.324 23.4442 118.66 23.7754 118.876 24.1758L113.3 26.3524ZM106.522 32.0452H109.263V14.8037H106.525V32.0494L106.522 32.0452ZM102.035 21.9727H101.943C101.524 21.5471 101.015 21.2106 100.45 20.9855C99.8849 20.7604 99.2761 20.6517 98.6637 20.6665C97.0577 20.7073 95.5319 21.3434 94.4112 22.4393C93.2905 23.5353 92.6634 25.0045 92.6634 26.5341C92.6634 28.0637 93.2905 29.5329 94.4112 30.6289C95.5319 31.7248 97.0577 32.3609 98.6637 32.4017C99.2787 32.4168 99.8899 32.3056 100.456 32.0756C101.022 31.8456 101.529 31.5023 101.943 31.069H102.035V31.9046C102.102 32.3484 102.065 32.8009 101.926 33.2293C101.786 33.6577 101.549 34.0512 101.23 34.3814C100.912 34.7116 100.52 34.9702 100.083 35.1384C99.6466 35.3066 99.1762 35.3803 98.7061 35.354C98.0243 35.3396 97.3621 35.1336 96.8029 34.762C96.2436 34.3903 95.8123 33.8695 95.563 33.2651L93.179 34.2023C93.6358 35.2371 94.4052 36.1192 95.3895 36.7369C96.3738 37.3545 97.5287 37.6797 98.7075 37.6712C101.925 37.6712 104.632 35.8915 104.632 31.562V21.0258H102.035V21.9727ZM98.8991 30.0914C98.4257 30.0811 97.9591 29.9809 97.5269 29.7966C97.0947 29.6122 96.7056 29.3476 96.3823 29.0181C96.059 28.6886 95.808 28.3009 95.6442 27.8778C95.4805 27.4547 95.4071 27.0048 95.4284 26.5543C95.4045 26.1013 95.4758 25.6482 95.6381 25.2218C95.8005 24.7953 96.0506 24.404 96.3739 24.0708C96.6971 23.7376 97.087 23.4692 97.5206 23.2813C97.9543 23.0935 98.4229 22.9899 98.8991 22.9768C99.3673 22.9958 99.8266 23.1044 100.25 23.2961C100.673 23.4878 101.051 23.7586 101.362 24.0925C101.673 24.4264 101.91 24.8164 102.059 25.2394C102.208 25.6623 102.266 26.1095 102.229 26.5543C102.264 26.9966 102.204 27.4409 102.053 27.8606C101.903 28.2804 101.665 28.6669 101.354 28.9971C101.043 29.3273 100.666 29.5944 100.244 29.7825C99.8219 29.9705 99.3646 30.0756 98.8991 30.0914ZM134.642 14.8037H128.085V32.0494H130.82V25.514H134.642C135.407 25.544 136.171 25.4288 136.889 25.1752C137.607 24.9215 138.265 24.5344 138.825 24.0364C139.384 23.5385 139.834 22.9395 140.149 22.2744C140.463 21.6094 140.635 20.8914 140.656 20.1624C140.635 19.4333 140.463 18.7153 140.148 18.0501C139.834 17.385 139.384 16.786 138.824 16.2878C138.265 15.7896 137.607 15.4023 136.889 15.1482C136.171 14.8942 135.407 14.7785 134.642 14.8079V14.8037ZM134.713 23.116H130.818V17.2018H134.713C135.131 17.1868 135.547 17.2522 135.938 17.3941C136.328 17.536 136.685 17.7514 136.986 18.0275C137.287 18.3035 137.526 18.6346 137.69 19.0008C137.854 19.367 137.938 19.7609 137.938 20.1589C137.938 20.5569 137.854 20.9507 137.69 21.317C137.526 21.6832 137.287 22.0143 136.986 22.2903C136.685 22.5664 136.328 22.7818 135.938 22.9237C135.547 23.0656 135.131 23.131 134.713 23.116ZM151.615 20.6372C150.62 20.5812 149.63 20.8014 148.765 21.2711C147.899 21.7408 147.196 22.4398 146.74 23.2831L149.168 24.2398C149.41 23.8211 149.775 23.4784 150.219 23.2535C150.662 23.0285 151.164 22.9309 151.664 22.9726C152.355 22.9066 153.044 23.1026 153.583 23.5179C154.123 23.9333 154.468 24.5346 154.544 25.191V25.372C153.664 24.9295 152.682 24.6999 151.686 24.7036C149.073 24.7036 146.411 26.0585 146.411 28.5847C146.439 29.1213 146.58 29.647 146.825 30.1308C147.071 30.6145 147.416 31.0464 147.84 31.4007C148.264 31.7551 148.758 32.0247 149.294 32.1935C149.83 32.3623 150.396 32.427 150.958 32.3836C151.645 32.4225 152.331 32.2865 152.945 31.9897C153.559 31.6928 154.078 31.2458 154.451 30.6944H154.544V32.0271H157.184V25.4124C157.184 22.3487 154.758 20.6428 151.615 20.6428V20.6372ZM151.286 30.0887C150.391 30.0887 149.144 29.6709 149.144 28.6264C149.144 27.2924 150.699 26.7799 152.045 26.7799C152.917 26.7603 153.779 26.9601 154.544 27.3592C154.438 28.1117 154.049 28.8023 153.451 29.3038C152.852 29.8053 152.083 30.084 151.286 30.0887ZM166.805 21.0146L163.663 28.4914H163.57L160.32 21.0146H157.371L162.253 31.4589L159.475 37.2716H162.332L169.854 21.0105H166.812L166.805 21.0146ZM142.159 32.0494H144.9V14.8037H142.159V32.0494Z" fill="#B8B8B8"/>
<path d="M0.685782 1.06023C0.203478 1.59841 -0.0403736 2.29395 0.00568507 3.00007V33.5112C-0.0411504 34.2174 0.202796 34.9132 0.685782 35.451L0.792549 35.5513L18.9606 18.4534V18.0495L0.792549 0.959961L0.685782 1.06023Z" fill="url(#paint0_linear)"/>
<path d="M25.0087 24.1548L18.958 18.4547V18.0494L25.016 12.3535L25.152 12.4273L32.3186 16.2668C34.3662 17.3559 34.3662 19.1496 32.3186 20.247L25.152 24.081L25.0087 24.1548Z" fill="url(#paint1_linear)"/>
<path d="M25.1515 24.0795L18.9589 18.2515L0.684082 35.4513C1.10436 35.7981 1.63776 35.9956 2.19366 36.0103C2.74956 36.0251 3.29367 35.8561 3.73355 35.5321L25.1515 24.0795Z" fill="url(#paint2_linear)"/>
<path d="M25.1515 12.424L3.73208 0.971538C3.29061 0.650274 2.74638 0.483607 2.19098 0.499586C1.63558 0.515565 1.10292 0.713214 0.682617 1.05927L18.9589 18.252L25.1515 12.424Z" fill="url(#paint3_linear)"/>
<defs>
<linearGradient id="paint0_linear" x1="17.349" y1="33.8217" x2="-11.4974" y2="25.6723" gradientUnits="userSpaceOnUse">
<stop stop-color="#00A0FF"/>
<stop offset="0.007" stop-color="#00A1FF"/>
<stop offset="0.26" stop-color="#00BEFF"/>
<stop offset="0.512" stop-color="#00D2FF"/>
<stop offset="0.76" stop-color="#00DFFF"/>
<stop offset="1" stop-color="#00E3FF"/>
</linearGradient>
<linearGradient id="paint1_linear" x1="34.9864" y1="18.2542" x2="-0.481664" y2="18.2542" gradientUnits="userSpaceOnUse">
<stop stop-color="#FFE000"/>
<stop offset="0.409" stop-color="#FFBD00"/>
<stop offset="0.775" stop-color="#FFA500"/>
<stop offset="1" stop-color="#FF9C00"/>
</linearGradient>
<linearGradient id="paint2_linear" x1="21.775" y1="15.0725" x2="0.445202" y2="-23.0665" gradientUnits="userSpaceOnUse">
<stop stop-color="#FF3A44"/>
<stop offset="1" stop-color="#C31162"/>
</linearGradient>
<linearGradient id="paint3_linear" x1="-3.91753" y1="45.6277" x2="5.60538" y2="28.5802" gradientUnits="userSpaceOnUse">
<stop stop-color="#32A071"/>
<stop offset="0.068" stop-color="#2DA771"/>
<stop offset="0.476" stop-color="#15CF74"/>
<stop offset="0.801" stop-color="#06E775"/>
<stop offset="1" stop-color="#00F076"/>
</linearGradient>
</defs>
</svg>
