<svg xmlns="http://www.w3.org/2000/svg" viewBox="0 0 380.12 301.99"><defs><style>.cls-1{fill:#c38d9e;opacity:0.46;}.cls-2{fill:#4c5660;}.cls-3{fill:#353d45;}.cls-4,.cls-8{fill:#4f5462;}.cls-5{fill:#e7e7e7;}.cls-6{fill:#e8a87c;}.cls-7{fill:#85cdcb;}.cls-8{opacity:0.67;}</style></defs><title>Asset 1</title><g id="Layer_2" data-name="Layer 2"><g id="Laptop"><path class="cls-1" d="M261.07,250.72l-.07,0a90.79,90.79,0,0,1-35.13,3.15,44.85,44.85,0,0,1-61.46,41.9,74.18,74.18,0,0,1-8.77,3.17A75.52,75.52,0,0,1,59,227a54.21,54.21,0,0,1-19.94-106l1-.25a76.41,76.41,0,0,1,119.32-64.2A82.2,82.2,0,0,1,315,55.08,71.53,71.53,0,0,1,331.64,194a48,48,0,1,1-70.57,56.7Z"/><polygon class="cls-2" points="92.86 226.34 308.87 226.34 317.87 217.34 85.86 217.34 92.86 226.34"/><polyline class="cls-3" points="85.86 217.34 112.86 196.34 289.87 196.34 316.16 217.34"/><path class="cls-4" d="M122.24,78.34H280.16a9.7,9.7,0,0,1,9.7,9.7v108.3a0,0,0,0,1,0,0h-177a0,0,0,0,1,0,0V87.72A9.38,9.38,0,0,1,122.24,78.34Z"/><rect class="cls-5" x="121.72" y="88.34" width="159.3" height="100"/><polygon class="cls-5" points="178.87 211.34 184.87 205.34 220.87 205.34 225.87 211.34 178.87 211.34"/><rect class="cls-6" x="204.87" y="99.34" width="25" height="8"/><rect class="cls-6" x="225.87" y="113.34" width="25" height="8"/><rect class="cls-7" x="131.87" y="127.34" width="25" height="8"/><rect class="cls-8" x="131.87" y="99.34" width="67" height="8"/><rect class="cls-8" x="131.87" y="113.34" width="91" height="8"/><rect class="cls-8" x="162.87" y="127.34" width="91" height="8"/><rect class="cls-6" x="203.87" y="141.34" width="25" height="8"/><rect class="cls-6" x="224.87" y="155.34" width="25" height="8"/><rect class="cls-7" x="130.87" y="169.34" width="25" height="8"/><rect class="cls-8" x="130.87" y="141.34" width="67" height="8"/><rect class="cls-8" x="130.87" y="155.34" width="91" height="8"/><rect class="cls-8" x="161.87" y="169.34" width="91" height="8"/></g></g></svg>