<svg xmlns="http://www.w3.org/2000/svg" viewBox="0 0 638.46 145.74"><defs><style>.cls-1{fill:#292929;}</style></defs><title>Asset 1</title><g id="Layer_2" data-name="Layer 2"><g id="Layer_1-2" data-name="Layer 1"><path class="cls-1" d="M10.92,99.47c0-41.65,22.72-67.79,56.11-67.79a45.26,45.26,0,0,1,34.16,15.7l-5.38,6.14C88.71,45.43,79.11,40,67.11,40,38.34,40,20.52,62.92,20.52,99.35s17.62,60.1,45.83,60.1c13.55,0,23.68-5.54,33.2-16.18l5.38,5.74c-10.06,11.67-22,18.77-39.05,18.77C33.52,167.78,10.92,141.19,10.92,99.47Z" transform="translate(-10.92 -22.03)"/><path class="cls-1" d="M123.9,141.57c0-21.26,19.17-31.38,61.73-36.08C185.91,90.78,181.88,75,163.07,75c-12.91,0-24.07,6.37-30.48,11.24l-4.07-6.54c6.78-4.78,20-12.43,35.59-12.43,22.68,0,30.33,16.46,30.33,36.94v61.13H187L186,153h-.44c-9.76,7.89-21.4,14.83-34,14.83C136.49,167.78,123.9,159.53,123.9,141.57Zm61.73,3.17V112.18c-39.3,4.54-52.73,13.67-52.73,28.94,0,13.72,9.29,19,20.29,19S173.79,154.82,185.63,144.74Z" transform="translate(-10.92 -22.03)"/><path class="cls-1" d="M220.54,117.72c0-31.2,20.28-50.41,41.72-50.41,22.68,0,36.63,16.14,36.63,44.27a41.29,41.29,0,0,1-.5,7.18H229.58c.32,24.15,14.47,41.41,36,41.41,10.36,0,18.53-3.43,25.71-8.49l3.62,6.69c-7.53,4.7-16.14,9.41-30.17,9.41C240.34,167.78,220.54,149,220.54,117.72Zm70.06-6.22c0-24.43-11.08-36.58-28.26-36.58-16.18,0-30.8,13.71-32.8,36.58Z" transform="translate(-10.92 -22.03)"/><path class="cls-1" d="M324.83,152.55V22h8.8V153.75c0,4.26,1.76,6.26,4.15,6.26a14.93,14.93,0,0,0,3.58-.4l1.48,7.17a19.8,19.8,0,0,1-6.34,1C328.81,167.78,324.83,163,324.83,152.55Z" transform="translate(-10.92 -22.03)"/><path class="cls-1" d="M531.46,69.7h7.45l1,14.82h.44c9.77-9.72,19.73-17.21,32.92-17.21,19.77,0,28.93,12,28.93,36.7v61.37h-8.8V105.17c0-20.29-6.42-29.93-21.8-29.93-11.4,0-19.65,6-31.29,18v72.17h-8.8Z" transform="translate(-10.92 -22.03)"/><path class="cls-1" d="M632.48,158.89c0-5.82,4.06-9.25,8.45-9.25s8.45,3.43,8.45,9.25a8.46,8.46,0,1,1-16.9,0Z" transform="translate(-10.92 -22.03)"/><polygon class="cls-1" points="367.53 100.88 413.1 67.64 413.1 59.32 356.14 100.88 413.1 142.44 413.1 134.13 367.53 100.88"/><polygon class="cls-1" points="475.67 100.88 430.1 67.64 430.1 59.32 487.06 100.88 430.1 142.44 430.1 134.13 475.67 100.88"/></g></g></svg>