<svg xmlns="http://www.w3.org/2000/svg" viewBox="0 0 333 431"><defs><style>.cls-1{fill:#8db9c3;opacity:0.53;}.cls-2{fill:#4c5660;}.cls-3{fill:#fff;}.cls-4{fill:#85cdcb;}.cls-5{fill:#e8a87c;}</style></defs><title>Asset 2</title><g id="Layer_2" data-name="Layer 2"><g id="Phone"><path class="cls-1" d="M282,260.09V260a102.38,102.38,0,0,0-7.63-38.94,50.48,50.48,0,0,0,26-79.58A85,85,0,0,0,192.85,49.22,61,61,0,0,0,72,61c0,.38,0,.75,0,1.13A86,86,0,0,0,40.15,211.24a92.5,92.5,0,0,0,47.4,168.63,80.5,80.5,0,0,0,155.36-25.71A54,54,0,1,0,282,260.09Z"/><path class="cls-2" d="M192.77,95h-64.6a37.23,37.23,0,0,0-37.23,37.23V297.77A37.23,37.23,0,0,0,128.17,335h64.6A37.23,37.23,0,0,0,230,297.77V132.23A37.23,37.23,0,0,0,192.77,95Z"/><path class="cls-3" d="M194.68,310H126.32C114.55,310,105,299.09,105,285.64V137.36c0-13.45,9.55-24.36,21.32-24.36h68.36c11.77,0,21.32,10.91,21.32,24.36V285.64C216,299.09,206.45,310,194.68,310Z"/><path class="cls-4" d="M166.39,131.39H131a6.61,6.61,0,0,0-6.61,6.61v1.75l-9.6,2.78a.86.86,0,0,0,0,1.65l9.6,2.77v.44A6.61,6.61,0,0,0,131,154h35.39a6.61,6.61,0,0,0,6.61-6.61V138A6.61,6.61,0,0,0,166.39,131.39Z"/><path class="cls-4" d="M166.39,249.39H131a6.61,6.61,0,0,0-6.61,6.61v1.75l-9.6,2.78a.86.86,0,0,0,0,1.65l9.6,2.77v.44A6.61,6.61,0,0,0,131,272h35.39a6.61,6.61,0,0,0,6.61-6.61V256A6.61,6.61,0,0,0,166.39,249.39Z"/><rect class="cls-5" x="138.25" y="174.25" width="55.75" height="51.75" rx="9.08"/><path class="cls-5" d="M208.11,197.38l-18.46-3.66a3.06,3.06,0,0,0-3.65,3V204a3.06,3.06,0,0,0,3.65,3l18.46-3.66A3.05,3.05,0,0,0,208.11,197.38Z"/></g></g></svg>