<svg xmlns="http://www.w3.org/2000/svg" viewBox="0 0 490.69 442.31"><defs><style>.cls-1,.cls-4{fill:#ffbe2c;}.cls-1{opacity:0.5;}.cls-2{fill:#efcb5b;}.cls-3{fill:#ffbe30;}.cls-5{fill:#eaaa2f;}.cls-6{fill:#585a55;}</style></defs><title>Asset 3</title><g id="Layer_2" data-name="Layer 2"><g id="Saxophone"><path class="cls-1" d="M335.71,376.39l-.1,0a116.94,116.94,0,0,1-45.16,4.06,57.69,57.69,0,0,1-79,53.88A97.11,97.11,0,0,1,75.89,345.86,69.7,69.7,0,0,1,50.26,209.5c.41-.12.83-.22,1.24-.33a98.27,98.27,0,0,1,153.43-82.56,105.71,105.71,0,0,1,200.16-1.8,92,92,0,0,1,21.36,178.67,61.7,61.7,0,1,1-90.74,72.91Z"/><path class="cls-2" d="M271.53,158.59l-75.59,159a2.86,2.86,0,0,0,1.38,3.8l.17.08a2.89,2.89,0,0,0,3.83-1.36l75.59-159a2.86,2.86,0,0,0-1.38-3.8l-.17-.08A2.9,2.9,0,0,0,271.53,158.59Z"/><path class="cls-2" d="M228.14,260.74l13.12,6.13a1.32,1.32,0,0,0,1.75-.62l1.33-2.79a1.32,1.32,0,0,0-.63-1.74l-13.13-6.13a1.31,1.31,0,0,0-1.74.62l-1.33,2.8A1.3,1.3,0,0,0,228.14,260.74Z"/><path class="cls-2" d="M248.17,220.28l13.13,6.13a1.3,1.3,0,0,0,1.74-.62l1.33-2.79a1.3,1.3,0,0,0-.63-1.74l-13.12-6.13a1.32,1.32,0,0,0-1.75.62l-1.32,2.79A1.31,1.31,0,0,0,248.17,220.28Z"/><path class="cls-2" d="M268.21,179.82,281.33,186a1.33,1.33,0,0,0,1.75-.62l1.33-2.8a1.3,1.3,0,0,0-.63-1.73l-13.12-6.13a1.32,1.32,0,0,0-1.75.62l-1.33,2.79A1.32,1.32,0,0,0,268.21,179.82Z"/><path class="cls-2" d="M209.21,302.39l13.12,6.13a1.32,1.32,0,0,0,1.75-.62l1.33-2.79a1.31,1.31,0,0,0-.63-1.74l-13.12-6.13a1.32,1.32,0,0,0-1.75.62l-1.33,2.79A1.31,1.31,0,0,0,209.21,302.39Z"/><rect class="cls-2" x="245.43" y="201.63" width="169.95" height="5.52" rx="1.77" transform="translate(17.32 434.44) rotate(-68.05)"/><rect class="cls-2" x="307.74" y="215.99" width="15.91" height="5.33" rx="0.8" transform="translate(104.63 -102.16) rotate(21.95)"/><rect class="cls-2" x="322.89" y="176.6" width="15.91" height="5.33" rx="0.8" transform="translate(91 -110.68) rotate(21.95)"/><rect class="cls-2" x="338.04" y="137.2" width="15.91" height="5.33" rx="0.8" transform="translate(77.37 -119.2) rotate(21.95)"/><rect class="cls-2" x="291.07" y="255.39" width="15.91" height="5.33" rx="0.8" transform="matrix(0.93, 0.37, -0.37, 0.93, 118.15, -93.07)"/><rect class="cls-3" x="120.89" y="165.53" width="112.13" height="24.24" rx="8" transform="translate(-40.96 53.6) rotate(-15.46)"/><path class="cls-4" d="M143.62,200.9s25.76,42.42-3,90.91S133,370.6,133,370.6s18.18,36.37,57.58,33.34,56.06-31.82,56.06-31.82,4.55-1.52,18.19-31.82S378.48,53.92,378.48,53.92c12.8-20.22,18.4-49.65,62.12-30.3l3-15.16c-31.76-10.43-59-19-90.91,24.25l-139.4,297c-10.59,13.28-20.59,20.51-28.79,9.09-3.55-4.56-2.55-15,15.15-47,21.81-44.37,31.47-85.68,19.7-113.64Z"/><path class="cls-5" d="M148.43,211l74-23.74s1.51-4.55-3-9.09L142.43,199Z"/><g id="pads"><circle class="cls-5" cx="314.84" cy="109.98" r="12.12"/><circle class="cls-5" cx="184.53" cy="241.81" r="19.7"/><circle class="cls-5" cx="171.65" cy="291.05" r="11.36"/><circle class="cls-5" cx="154.98" cy="328.93" r="11.36"/><circle class="cls-5" cx="169.38" cy="369.09" r="12.12"/><circle class="cls-5" cx="231.5" cy="290.3" r="12.12"/><circle class="cls-5" cx="245.14" cy="259.99" r="12.12"/><circle class="cls-5" cx="258.78" cy="229.69" r="12.12"/><circle class="cls-5" cx="272.41" cy="200.9" r="12.12"/><circle class="cls-5" cx="287.56" cy="170.59" r="12.12"/><circle class="cls-5" cx="301.2" cy="140.29" r="12.12"/></g><path class="cls-6" d="M442.44,9.6l-4.75,10.93a1.7,1.7,0,0,0,.93,2.26L488.4,42.27a1.68,1.68,0,0,0,2.29-1.59h0a1.69,1.69,0,0,0-.35-1l-14.74-19a1.63,1.63,0,0,0-.74-.55L448.15,10l-3.57-1.34a1.65,1.65,0,0,0-.68-.11A1.69,1.69,0,0,0,442.44,9.6Z"/><polygon class="cls-4" points="469.56 18.07 463.42 32.49 459.76 31.06 464.77 16.27 469.56 18.07"/></g></g></svg>